<svg xmlns="http://www.w3.org/2000/svg" xmlns:xlink="http://www.w3.org/1999/xlink" viewBox="0 0 913.38 110.39"><defs><style>.cls-1{fill:#fff;}.cls-2{fill:url(#radial-gradient);}.cls-3{fill:url(#radial-gradient-2);}.cls-4{fill:url(#radial-gradient-3);}</style><radialGradient id="radial-gradient" cx="67.04" cy="74.78" r="50.2" gradientUnits="userSpaceOnUse"><stop offset="0" stop-color="#f95d2b"/><stop offset="1" stop-color="#f8310e"/></radialGradient><radialGradient id="radial-gradient-2" cx="669.57" cy="15.48" r="14.38" xlink:href="#radial-gradient"/><radialGradient id="radial-gradient-3" cx="795.51" cy="15.19" r="14.49" xlink:href="#radial-gradient"/></defs><g id="Layer_2" data-name="Layer 2"><g id="Layer_1-2" data-name="Layer 1"><path class="cls-1" d="M366.38,102.61c-10.43,0-20.85.13-31.27,0-12.47-.19-19.36-14.32-17.93-24.09,2.68-18.22,5.6-36.4,8.42-54.6,1.78-11.5,12.31-22.17,23.88-22.46,21.32-.52,42.67-.38,64,0,8.28.13,16.52,9,16.15,17.41-.48,10.68-1.83,21.32-3.08,32-1,8.23-2.45,16.4-3.56,24.62-2.36,17.4-12.94,27.62-31,28-8.53.18-17.06,0-25.59,0Zm3.26-21.75h7.72c10.36,0,16.34-4.44,18.25-14.62,1.86-9.9,3.19-19.92,4.24-29.95.89-8.47-3.45-13-11.94-13.23-6.11-.15-12.22,0-18.33,0-9.68,0-16.2,5.06-17.86,14.62-1.76,10.1-3.12,20.28-4.31,30.46-.84,7.21,3.87,12.38,11.14,12.71C362.24,81,365.94,80.85,369.64,80.86Z"/><path class="cls-1" d="M429.91,102.54c1.14-8.22,2.18-15.88,3.26-23.53,1.51-10.69,3.09-21.36,4.56-32.06,2-14.31,3.84-28.64,5.95-42.93a4.19,4.19,0,0,1,3.1-2.55C467.85,1.32,489,.17,510,1.72c19.34,1.42,24.57,15.38,22.87,32.41C532,43,529,51.34,522.88,58.41c-7.11,8.24-16,13-26.59,14.06-8.91.87-17.92.75-26.89,1-3,.09-6.06,0-9.47,0-1.08,8.3-2.29,16.26-3.08,24.26-.36,3.58-1.61,5-5.34,4.86C444.48,102.35,437.43,102.54,429.91,102.54Zm33.54-50.17c10.28,0,20.07.21,29.84-.15,2.3-.09,4.84-1.74,6.74-3.32,5.43-4.51,6.42-10.87,6.23-17.48-.18-6-3.33-9.13-9.37-9.24-6.44-.13-12.88,0-19.32,0h-9.82C466.26,32.64,464.89,42.27,463.45,52.37Z"/><path class="cls-1" d="M242.72,101.46H217.85c1.26-9.25,2.51-18.3,3.72-27.36,1.52-11.33,2.94-22.67,4.52-34,1.36-9.76,2.88-19.5,4.35-29.25,0-.31.28-.59.34-.89,1.64-8.4,1.64-8.4,10.05-8.4,15.29,0,30.58-.11,45.87.07A84.91,84.91,0,0,1,300,3.14c13.7,2.35,18,13.75,17.55,25.14a37.39,37.39,0,0,1-8.12,22.39,36.45,36.45,0,0,1-25.59,14.06c-10.19,1-20.51,1-30.77,1-4.06,0-5.76.68-6.13,5.42C246.11,81.14,244.23,91,242.72,101.46Zm9-56.63c9.87,0,19.16.33,28.41-.11,6.62-.32,12.16-9,10.7-15.68-.95-4.3-3.46-6.82-8-6.86-8.35-.07-16.7-.09-25.05.08-1.08,0-3,1.13-3.1,2C253.59,30.94,252.75,37.7,251.76,44.83Z"/><path class="cls-1" d="M206.71,43.32c-5.32,4.16-10.88,8.06-15.9,12.56-5.92,5.32-12.64,6.82-20.3,6.16-4.14-.36-8.34-.07-13.13-.07-1,6.69-1.89,13.21-2.92,20.41H209c-.82,6.8-1.55,12.86-2.29,19.06H128.42c.74-6.3,1.39-12.4,2.2-18.48,1.81-13.76,3.72-27.51,5.54-41.27,1.66-12.49,3.16-25,5.08-37.47.18-1.12,3-2.59,4.55-2.61,13.35-.21,26.71-.13,40.07-.12,8.53,0,17.06,0,25.58.1,2.38,0,4.75.35,7.76.59l-3,19.22H172.34a55.88,55.88,0,0,1-5.79,0c-2.91-.32-4.09,1.18-4.38,3.73-.62,5.36-1.17,10.72-1.83,16.84h45.88Z"/><path class="cls-1" d="M886.56,1.31c3.36,12.13,6.7,24,9.86,35.92.28,1.05-.33,3.12-1.15,3.55C888.14,44.55,880.86,48.06,873,52c-1.72-5.58-3.29-10.66-5.4-17.53L849,66.08l.94,1.4,54.47-27,.93,1a17.73,17.73,0,0,1-1.48,3c-7.61,10.19-15,20.55-23.09,30.38-2.37,2.9-6.5,4.48-10,6.28-12.74,6.5-25.51,13-38.4,19.15a23.82,23.82,0,0,1-9.09,2.13c-7.2.3-14.42.1-22.55.1,3-5.46,5.65-10.29,8.39-15,15.65-27.1,31.4-54.15,46.95-81.31,2-3.56,4.13-5.34,8.53-5.06C871.64,1.65,878.73,1.31,886.56,1.31Z"/><path class="cls-1" d="M0,101.85,32.68,44.44c7.5-13.18,15.07-26.32,22.43-39.58C57,1.4,59.23-.23,63.39,0c6.42.39,12.88.16,19.32.08,2.43,0,3.51.63,4.2,3.32,3.85,15.07,8,30.09,12.17,45.07,1.24,4.37-1.54,6.69-4.17,8.73C89,61.81,83.2,66.76,76.61,70.13c-15,7.68-30.39,14.66-45.76,21.61-7.54,3.4-15.38,6.13-23.12,9.06-2.32.88-4.76,1.43-7.15,2.13C.38,102.57.19,102.21,0,101.85ZM49.45,63.22l1.34,1.12C56.85,61,63,57.74,68.93,54.24A3.73,3.73,0,0,0,70.31,51c-1.23-4.78-2.79-9.47-4.24-14.19l-1.31-.21Q57.11,49.93,49.45,63.22Z"/><path class="cls-1" d="M555.45,102.35H529.59c1.1-8.38,2.1-16.51,3.23-24.62,1.42-10.22,3-20.42,4.41-30.65s2.79-20.47,4.18-30.7c.54-3.93.93-7.89,1.73-11.76.26-1.22,1.61-3.12,2.51-3.15,7.81-.25,15.63-.15,24-.15-2.45,17.87-4.8,35-7.28,53.12L646.5,25.63l.74,1.35c-5.84,5.09-11.63,10.26-17.55,15.26-4.74,4-9.48,8-14.53,11.64-4.21,3-8.59,6.1-13.36,7.92-12.14,4.6-24.43,8.89-36.89,12.53-5.1,1.49-6.14,4.41-6.66,8.77C557.5,89.52,556.41,95.9,555.45,102.35Z"/><path class="cls-1" d="M725.33,1.19c-3.74,27.23-7.37,53.66-11.11,80.87h48.91c-1.07,7.2-2,13.63-3,20.34h-75c1.07-8.55,2-16.89,3.16-25.21,1.75-12.94,3.62-25.87,5.43-38.81,1.62-11.52,3.18-23.06,5-34.56a3.87,3.87,0,0,1,2.72-2.52C709,1.1,716.72,1.19,725.33,1.19Z"/><path class="cls-1" d="M796.82,102.37h-27.1c.95-7.16,1.86-14,2.77-20.84,1.14-8.46,2.26-16.92,3.42-25.37,1-6.89,1.34-13.94,3.23-20.56.79-2.75,4.72-4.73,7.44-6.77,5.56-4.15,11.23-8.17,16.95-12.1,1.36-.94,3.11-1.3,5.6-2.29C805,44.15,800.92,73.07,796.82,102.37Z"/><path class="cls-1" d="M682.46,15.65c-.87,7.22-1.64,14.45-2.63,21.65-1.74,12.8-3.64,25.58-5.42,38.37-1.12,8.06-2,16.14-3.33,24.16a4.19,4.19,0,0,1-3,2.74c-7.69.24-15.39.13-23.89.13.86-6.85,1.6-13.26,2.49-19.64,1.75-12.63,3.76-25.22,5.3-37.88.75-6.15,1.85-11.29,8-14.9,7.5-4.38,14.21-10.11,21.27-15.26Z"/><path class="cls-2" d="M106.67,39.18a56.28,56.28,0,0,1,19.54,17.2c4.44,6.22,2,14.08-4.66,19.26-12,9.35-25.92,14.85-40.39,18.48-21.18,5.32-42.62,9.61-64,14.28-3.67.8-7.41,1.33-11.12,2l-.46-1.17a34.14,34.14,0,0,1,3.3-1.68C31.18,99,53.38,90.3,74.27,78.66c10.45-5.82,20.66-12,28.64-21.21C107.18,52.56,109.79,47.12,106.67,39.18Z"/><path class="cls-1" d="M602.74,102.67c.8-6.73,1.48-12.87,2.27-19,.52-4,1.44-7.87,1.73-11.84a15.16,15.16,0,0,1,6.11-11.33c7-5.64,13.59-11.71,20.39-17.57,1-.9,2.23-1.64,4.43-3.23-.43,4.69-.62,8.21-1.1,11.68-2.2,15.8-4.43,31.6-6.83,47.37-.21,1.41-1.62,3.72-2.55,3.75C619.21,102.8,611.2,102.67,602.74,102.67Z"/><path class="cls-1" d="M311.81,101.62c-9.2,0-18,.07-26.85-.08a4.79,4.79,0,0,1-3.44-1.8c-6.28-9.64-12.39-19.4-19-29.81,9.42,0,18.32,0,27.21.06a3.25,3.25,0,0,1,2.3,1.25q9.82,14.13,19.48,28.38C311.76,100,311.67,100.52,311.81,101.62Z"/><path class="cls-1" d="M901.28,55.85c4.14,15.92,8,30.78,12.1,46.58-9.24,0-17.06.12-24.87-.14-1,0-2.37-1.92-2.81-3.21-1.6-4.66-3-9.41-4.21-14.19a5.33,5.33,0,0,1,.55-4C888.07,72.79,894.29,64.87,901.28,55.85Z"/><path class="cls-1" d="M616.7,1.49h26.53c-1,7.09-1.67,13.88-2.91,20.56-.25,1.4-2.24,3-3.77,3.55-7.67,2.65-15.46,5-24.2,7.72C613.84,22.44,615.24,12.15,616.7,1.49Z"/><path class="cls-3" d="M658.17,1.66h26.27c.4,4.91-1.73,7.61-5.37,10.05-7.9,5.27-15.44,11.06-24.42,17.58C656,19.1,657.06,10.4,658.17,1.66Z"/><path class="cls-4" d="M810.45,1.19c0,4.66-1.3,7.52-4.81,9.89-8.16,5.5-16,11.51-25.06,18.14.45-4.51.72-7.71,1.12-10.9.57-4.57,1-9.17,1.95-13.67.26-1.3,1.84-3.28,2.87-3.31C794.36,1.06,802.21,1.19,810.45,1.19Z"/><path class="cls-1" d="M110.62,90.39c.57,2,1.21,3.85,1.69,5.79s.8,4,1.19,5.92c-5.4,2.54-24.69,1.59-27.26-1.29Z"/></g></g></svg>