<svg width="128" height="109" viewBox="0 0 128 109" fill="none" xmlns="http://www.w3.org/2000/svg">
<path d="M0 99.6658L32.4159 43.4987C39.8553 30.6041 47.3642 17.7486 54.6647 4.77565C56.5394 1.39056 58.7514 -0.204145 62.8778 0.0208758C69.2459 0.402432 75.6537 0.177412 82.0417 0.0991437C84.4521 0.0991437 85.5233 0.715504 86.2078 3.34726C90.0267 18.091 94.1431 32.7858 98.2794 47.4415C99.5094 51.7169 96.7519 53.9866 94.1431 55.9825C88.2809 60.4927 82.5277 65.3355 75.991 68.6325C61.1122 76.1462 45.8465 82.9751 30.6007 89.7747C23.1217 93.101 15.345 95.7719 7.66754 98.6385C5.36629 99.4995 2.946 100.038 0.575314 100.722C0.37693 100.37 0.188465 100.018 0 99.6658ZM49.0504 61.8721L50.3796 62.9679C56.3907 59.7002 62.491 56.5108 68.3731 53.0866C68.8482 52.7102 69.2218 52.224 69.4606 51.671C69.6994 51.118 69.796 50.5154 69.7419 49.9167C68.5218 45.2402 66.9744 40.6517 65.5362 36.0339L64.2367 35.8285C59.178 44.5227 54.1159 53.204 49.0504 61.8721Z" fill="white"/>
<path d="M105.808 38.353C113.513 42.3912 120.152 48.1545 125.19 55.1806C129.594 61.266 127.174 68.9558 120.568 74.0236C108.665 83.1712 94.8573 88.5521 80.5042 92.1035C59.4954 97.3084 38.2286 101.505 17.0213 106.074C13.381 106.857 9.67122 107.376 5.9912 108.031L5.53491 106.886C6.59507 106.281 7.68779 105.732 8.80825 105.243C30.9281 96.8779 52.9487 88.3663 73.6699 76.9783C84.0355 71.2843 94.163 65.2381 102.078 56.2275C106.314 51.4433 108.903 46.1211 105.808 38.353Z" fill="url(#paint0_radial_17_15)"/>
<path d="M109.726 88.4543C110.292 90.411 110.926 92.221 111.403 94.119C111.879 96.017 112.196 98.0324 112.583 99.9108C107.227 102.396 88.0924 101.466 85.5432 98.6487L109.726 88.4543Z" fill="white"/>
<defs>
<radialGradient id="paint0_radial_17_15" cx="0" cy="0" r="1" gradientUnits="userSpaceOnUse" gradientTransform="translate(66.4983 73.1823) scale(49.7944 49.1131)">
<stop stop-color="#F95D2B"/>
<stop offset="1" stop-color="#F8310E"/>
</radialGradient>
</defs>
</svg>
